<mxfile host="app.diagrams.net" agent="Mozilla/5.0 (Macintosh; Intel Mac OS X 10.15; rv:143.0) Gecko/20100101 Firefox/143.0" version="28.2.5">
  <diagram name="Page-1" id="Gh6xkGLJuU8heK1uXVDp">
    <mxGraphModel dx="915" dy="726" grid="1" gridSize="10" guides="1" tooltips="1" connect="1" arrows="1" fold="1" page="1" pageScale="1" pageWidth="980" pageHeight="690" math="0" shadow="0">
      <root>
        <mxCell id="0" />
        <mxCell id="1" parent="0" />
        <mxCell id="vaZwTxLybMNeaWqCYO6f-1" value="" style="endArrow=classic;html=1;rounded=0;" edge="1" parent="1">
          <mxGeometry width="50" height="50" relative="1" as="geometry">
            <mxPoint x="159.5" y="150" as="sourcePoint" />
            <mxPoint x="159.5" y="90" as="targetPoint" />
          </mxGeometry>
        </mxCell>
        <mxCell id="vaZwTxLybMNeaWqCYO6f-2" value="" style="endArrow=classic;html=1;rounded=0;" edge="1" parent="1">
          <mxGeometry width="50" height="50" relative="1" as="geometry">
            <mxPoint x="159.5" y="150" as="sourcePoint" />
            <mxPoint x="220" y="150" as="targetPoint" />
            <Array as="points">
              <mxPoint x="204.5" y="150" />
            </Array>
          </mxGeometry>
        </mxCell>
        <mxCell id="vaZwTxLybMNeaWqCYO6f-3" value="" style="endArrow=classic;html=1;rounded=0;" edge="1" parent="1">
          <mxGeometry width="50" height="50" relative="1" as="geometry">
            <mxPoint x="159.5" y="150" as="sourcePoint" />
            <mxPoint x="116" y="174" as="targetPoint" />
          </mxGeometry>
        </mxCell>
        <mxCell id="vaZwTxLybMNeaWqCYO6f-4" value="" style="ellipse;whiteSpace=wrap;html=1;aspect=fixed;fillColor=#f8cecc;strokeColor=#b85450;" vertex="1" parent="1">
          <mxGeometry x="135" y="141" width="8" height="8" as="geometry" />
        </mxCell>
        <mxCell id="vaZwTxLybMNeaWqCYO6f-5" value="" style="ellipse;whiteSpace=wrap;html=1;aspect=fixed;fillColor=#f8cecc;strokeColor=#b85450;" vertex="1" parent="1">
          <mxGeometry x="108" y="140" width="9" height="9" as="geometry" />
        </mxCell>
        <mxCell id="vaZwTxLybMNeaWqCYO6f-6" value="" style="ellipse;whiteSpace=wrap;html=1;aspect=fixed;fillColor=#f8cecc;strokeColor=#b85450;" vertex="1" parent="1">
          <mxGeometry x="85" y="120" width="11" height="11" as="geometry" />
        </mxCell>
        <mxCell id="vaZwTxLybMNeaWqCYO6f-7" value="" style="ellipse;whiteSpace=wrap;html=1;aspect=fixed;fillColor=#f8cecc;strokeColor=#b85450;" vertex="1" parent="1">
          <mxGeometry x="50" y="125" width="15" height="15" as="geometry" />
        </mxCell>
        <mxCell id="vaZwTxLybMNeaWqCYO6f-8" value="" style="ellipse;whiteSpace=wrap;html=1;aspect=fixed;fillColor=#f8cecc;strokeColor=#b85450;" vertex="1" parent="1">
          <mxGeometry x="65" y="100" width="12" height="12" as="geometry" />
        </mxCell>
        <mxCell id="vaZwTxLybMNeaWqCYO6f-10" value="" style="ellipse;whiteSpace=wrap;html=1;aspect=fixed;fillColor=#dae8fc;strokeColor=#6c8ebf;" vertex="1" parent="1">
          <mxGeometry x="261" y="87" width="8" height="8" as="geometry" />
        </mxCell>
        <mxCell id="vaZwTxLybMNeaWqCYO6f-11" value="" style="ellipse;whiteSpace=wrap;html=1;aspect=fixed;fillColor=#dae8fc;strokeColor=#6c8ebf;" vertex="1" parent="1">
          <mxGeometry x="241" y="107" width="8" height="8" as="geometry" />
        </mxCell>
        <mxCell id="vaZwTxLybMNeaWqCYO6f-12" value="" style="ellipse;whiteSpace=wrap;html=1;aspect=fixed;fillColor=#dae8fc;strokeColor=#6c8ebf;" vertex="1" parent="1">
          <mxGeometry x="211" y="97" width="8" height="8" as="geometry" />
        </mxCell>
        <mxCell id="vaZwTxLybMNeaWqCYO6f-13" value="" style="ellipse;whiteSpace=wrap;html=1;aspect=fixed;fillColor=#dae8fc;strokeColor=#6c8ebf;" vertex="1" parent="1">
          <mxGeometry x="201" y="127" width="8" height="8" as="geometry" />
        </mxCell>
        <mxCell id="vaZwTxLybMNeaWqCYO6f-14" value="" style="ellipse;whiteSpace=wrap;html=1;aspect=fixed;fillColor=#dae8fc;strokeColor=#6c8ebf;" vertex="1" parent="1">
          <mxGeometry x="161" y="137" width="8" height="8" as="geometry" />
        </mxCell>
        <mxCell id="vaZwTxLybMNeaWqCYO6f-15" value="" style="ellipse;whiteSpace=wrap;html=1;aspect=fixed;fillColor=#d5e8d4;strokeColor=#82b366;" vertex="1" parent="1">
          <mxGeometry x="142" y="100" width="10" height="10" as="geometry" />
        </mxCell>
        <mxCell id="vaZwTxLybMNeaWqCYO6f-16" value="" style="ellipse;whiteSpace=wrap;html=1;aspect=fixed;fillColor=#d5e8d4;strokeColor=#82b366;" vertex="1" parent="1">
          <mxGeometry x="115" y="92" width="8" height="8" as="geometry" />
        </mxCell>
        <mxCell id="vaZwTxLybMNeaWqCYO6f-17" value="" style="ellipse;whiteSpace=wrap;html=1;aspect=fixed;fillColor=#d5e8d4;strokeColor=#82b366;" vertex="1" parent="1">
          <mxGeometry x="125" y="75" width="7" height="7" as="geometry" />
        </mxCell>
        <mxCell id="vaZwTxLybMNeaWqCYO6f-18" value="" style="ellipse;whiteSpace=wrap;html=1;aspect=fixed;fillColor=#d5e8d4;strokeColor=#82b366;" vertex="1" parent="1">
          <mxGeometry x="108" y="78" width="4" height="4" as="geometry" />
        </mxCell>
        <mxCell id="vaZwTxLybMNeaWqCYO6f-19" value="" style="ellipse;whiteSpace=wrap;html=1;aspect=fixed;fillColor=#d5e8d4;strokeColor=#82b366;" vertex="1" parent="1">
          <mxGeometry x="112" y="62" width="3" height="3" as="geometry" />
        </mxCell>
        <mxCell id="vaZwTxLybMNeaWqCYO6f-20" value="" style="endArrow=classic;html=1;rounded=0;endSize=3;" edge="1" parent="1">
          <mxGeometry width="50" height="50" relative="1" as="geometry">
            <mxPoint x="505" y="150" as="sourcePoint" />
            <mxPoint x="470" y="80" as="targetPoint" />
          </mxGeometry>
        </mxCell>
        <mxCell id="vaZwTxLybMNeaWqCYO6f-24" value="" style="ellipse;whiteSpace=wrap;html=1;aspect=fixed;fillColor=#f8cecc;strokeColor=#b85450;" vertex="1" parent="1">
          <mxGeometry x="458" y="140" width="9" height="9" as="geometry" />
        </mxCell>
        <mxCell id="vaZwTxLybMNeaWqCYO6f-25" value="" style="ellipse;whiteSpace=wrap;html=1;aspect=fixed;fillColor=#f8cecc;strokeColor=#b85450;" vertex="1" parent="1">
          <mxGeometry x="435" y="120" width="11" height="11" as="geometry" />
        </mxCell>
        <mxCell id="vaZwTxLybMNeaWqCYO6f-26" value="" style="ellipse;whiteSpace=wrap;html=1;aspect=fixed;fillColor=#f8cecc;strokeColor=#b85450;" vertex="1" parent="1">
          <mxGeometry x="400" y="125" width="15" height="15" as="geometry" />
        </mxCell>
        <mxCell id="vaZwTxLybMNeaWqCYO6f-27" value="" style="ellipse;whiteSpace=wrap;html=1;aspect=fixed;fillColor=#f8cecc;strokeColor=#b85450;" vertex="1" parent="1">
          <mxGeometry x="415" y="100" width="12" height="12" as="geometry" />
        </mxCell>
        <mxCell id="vaZwTxLybMNeaWqCYO6f-28" value="" style="ellipse;whiteSpace=wrap;html=1;aspect=fixed;fillColor=#dae8fc;strokeColor=#6c8ebf;" vertex="1" parent="1">
          <mxGeometry x="611" y="87" width="8" height="8" as="geometry" />
        </mxCell>
        <mxCell id="vaZwTxLybMNeaWqCYO6f-29" value="" style="ellipse;whiteSpace=wrap;html=1;aspect=fixed;fillColor=#dae8fc;strokeColor=#6c8ebf;" vertex="1" parent="1">
          <mxGeometry x="591" y="107" width="8" height="8" as="geometry" />
        </mxCell>
        <mxCell id="vaZwTxLybMNeaWqCYO6f-30" value="" style="ellipse;whiteSpace=wrap;html=1;aspect=fixed;fillColor=#dae8fc;strokeColor=#6c8ebf;" vertex="1" parent="1">
          <mxGeometry x="561" y="97" width="8" height="8" as="geometry" />
        </mxCell>
        <mxCell id="vaZwTxLybMNeaWqCYO6f-31" value="" style="ellipse;whiteSpace=wrap;html=1;aspect=fixed;fillColor=#dae8fc;strokeColor=#6c8ebf;" vertex="1" parent="1">
          <mxGeometry x="551" y="127" width="8" height="8" as="geometry" />
        </mxCell>
        <mxCell id="vaZwTxLybMNeaWqCYO6f-33" value="" style="ellipse;whiteSpace=wrap;html=1;aspect=fixed;fillColor=#d5e8d4;strokeColor=#82b366;" vertex="1" parent="1">
          <mxGeometry x="492" y="100" width="10" height="10" as="geometry" />
        </mxCell>
        <mxCell id="vaZwTxLybMNeaWqCYO6f-34" value="" style="ellipse;whiteSpace=wrap;html=1;aspect=fixed;fillColor=#d5e8d4;strokeColor=#82b366;" vertex="1" parent="1">
          <mxGeometry x="465" y="92" width="8" height="8" as="geometry" />
        </mxCell>
        <mxCell id="vaZwTxLybMNeaWqCYO6f-35" value="" style="ellipse;whiteSpace=wrap;html=1;aspect=fixed;fillColor=#d5e8d4;strokeColor=#82b366;" vertex="1" parent="1">
          <mxGeometry x="475" y="75" width="7" height="7" as="geometry" />
        </mxCell>
        <mxCell id="vaZwTxLybMNeaWqCYO6f-36" value="" style="ellipse;whiteSpace=wrap;html=1;aspect=fixed;fillColor=#d5e8d4;strokeColor=#82b366;" vertex="1" parent="1">
          <mxGeometry x="458" y="78" width="4" height="4" as="geometry" />
        </mxCell>
        <mxCell id="vaZwTxLybMNeaWqCYO6f-37" value="" style="ellipse;whiteSpace=wrap;html=1;aspect=fixed;fillColor=#d5e8d4;strokeColor=#82b366;" vertex="1" parent="1">
          <mxGeometry x="462" y="62" width="3" height="3" as="geometry" />
        </mxCell>
        <mxCell id="vaZwTxLybMNeaWqCYO6f-22" value="" style="endArrow=classic;html=1;rounded=0;endSize=11;" edge="1" parent="1">
          <mxGeometry width="50" height="50" relative="1" as="geometry">
            <mxPoint x="505" y="150" as="sourcePoint" />
            <mxPoint x="450" y="130" as="targetPoint" />
          </mxGeometry>
        </mxCell>
        <mxCell id="vaZwTxLybMNeaWqCYO6f-21" value="" style="endArrow=classic;html=1;rounded=0;" edge="1" parent="1">
          <mxGeometry width="50" height="50" relative="1" as="geometry">
            <mxPoint x="505" y="150" as="sourcePoint" />
            <mxPoint x="570" y="110" as="targetPoint" />
          </mxGeometry>
        </mxCell>
        <mxCell id="vaZwTxLybMNeaWqCYO6f-23" value="" style="ellipse;whiteSpace=wrap;html=1;aspect=fixed;fillColor=#f8cecc;strokeColor=#b85450;" vertex="1" parent="1">
          <mxGeometry x="485" y="141" width="8" height="8" as="geometry" />
        </mxCell>
        <mxCell id="vaZwTxLybMNeaWqCYO6f-32" value="" style="ellipse;whiteSpace=wrap;html=1;aspect=fixed;fillColor=#dae8fc;strokeColor=#6c8ebf;" vertex="1" parent="1">
          <mxGeometry x="511" y="137" width="8" height="8" as="geometry" />
        </mxCell>
        <mxCell id="vaZwTxLybMNeaWqCYO6f-38" value="" style="shape=flexArrow;endArrow=classic;html=1;rounded=0;fillColor=#f5f5f5;strokeColor=#666666;" edge="1" parent="1">
          <mxGeometry width="50" height="50" relative="1" as="geometry">
            <mxPoint x="310" y="120" as="sourcePoint" />
            <mxPoint x="350" y="120" as="targetPoint" />
          </mxGeometry>
        </mxCell>
      </root>
    </mxGraphModel>
  </diagram>
</mxfile>
